# xmcd
# Track frame offsets:
# 150
# 16166
# 28562
# 40251
# 52315
# 66532
# 79740
# 97464
# 110428
# 121671
# 132494
# 144215
# 155284
# 168595
# 181426
# 194164
# 208010
# 220886
# 239596
#
# Disc length: 3369 seconds
# Revision: 0
# Processed by: cddbd v1.5.2PL0 Copyright (c) Steve Scherf et al.
# Submitted via: VisiTrax 2.11.2.271 - For more info visit www.synapsa.com
#
DISCID=220d2713
DTITLE=Various (1950's-2000's) Country Artists - Always On My Mind: The Roman
DTITLE=tic Side Of Country: CD1 of 5: I Will Always Love You: *ReMastered
DYEAR=2006
DGENRE=Country
TTITLE0=Willie Nelson - Always On My Mind*
TTITLE1=Patsy Cline - Crazy*
TTITLE2=Jim Reeves - Welcome To My World*
TTITLE3=Tammy Wynette - There Goes My Everything*
TTITLE4=John Denver - Annies Song*
TTITLE5=Crystal Gayle - Talking In Your Sleep*
TTITLE6=Judds The - Love Can Build A Bridge*
TTITLE7=Charlie Rich - The Most Beautiful Girl*
TTITLE8=Don Gibson - Oh, Lonesome Me*
TTITLE9=Billy Jo Spears - Misty Blue*
TTITLE10=George Jones - She Thinks I Still Care*
TTITLE11=Marty Robbins - Love Is Blue*
TTITLE12=Glen Campbell - Gentle On My Mind*
TTITLE13=Billy Jo Spears - What I've Got In Mind*
TTITLE14=Don Williams - You're My Best Friend*
TTITLE15=Reba McIntyre - Cathy's Clown*
TTITLE16=Kenny Rogers and The First Edition - Ruby, Don't Take Your Love To Town*
TTITLE17=Juice Newton - Angel Of The Morning*
TTITLE18=Dolly Parton - I Will Always Love You*
EXTD=Compilation: Readers Digest: 2006
EXTT0=
EXTT1=
EXTT2=
EXTT3=
EXTT4=
EXTT5=
EXTT6=
EXTT7=
EXTT8=
EXTT9=
EXTT10=
EXTT11=
EXTT12=
EXTT13=
EXTT14=
EXTT15=
EXTT16=
EXTT17=
EXTT18=
PLAYORDER=
